<?xml version="1.0" encoding="utf-8"?>
<!-- Generator: Adobe Illustrator 24.0.2, SVG Export Plug-In . SVG Version: 6.00 Build 0)  -->
<svg version="1.1" id="Layer_1" xmlns="http://www.w3.org/2000/svg" xmlns:xlink="http://www.w3.org/1999/xlink" x="0px" y="0px"
	 viewBox="0 0 559.4 135.7" style="enable-background:new 0 0 559.4 135.7;" xml:space="preserve">
<style type="text/css">
	.st0{fill:#A2D45E;}
	.st1{fill:#003DA6;}
	.st2{fill:#FF8300;}
</style>
<g>
	<path class="st0" d="M263.5,129.6l-9.6-13.7c1.4-9.1,6-45.9-5.1-61.8c-12.4-17.8-56.3-26.1-58.2-26.5c-0.3,0-0.5-0.1-0.7-0.1
		c-0.8,0-1.7,0.3-2.4,0.7c-0.9,0.6-1.5,1.6-1.7,2.7c-0.1,0.7-1.2,7.3-1.9,16.2c-0.2,3.1-0.4,6.4-0.5,9.9c-0.3,13.5,1,28.8,7.2,37.7
		c0.4,0.6,0.9,1.3,1.4,1.8c1.7,2,3.7,3.8,6.1,5.5c15.5,11.5,42.9,17.5,49.4,18.8l9.3,13.3c0.8,1.1,2.1,1.7,3.4,1.7
		c0.8,0,1.6-0.2,2.3-0.7C264.4,134,264.8,131.4,263.5,129.6z M203.7,96.1c-2.5-1.8-4.5-3.6-6-5.6c-0.1-0.1-0.2-0.3-0.3-0.4
		c-3.9-5.6-5.4-15.4-5.7-25.5c-0.1-3.7-0.1-7.5,0.1-11.1c0.3-6.4,0.9-12.4,1.5-16.9c14,3.1,41,11,48.9,22.2c6.8,9.7,6.3,32,4.8,47.1
		l-16.9-24.1c-0.8-1.1-2.1-1.7-3.4-1.7c-0.8,0-1.6,0.2-2.4,0.7c-1.9,1.3-2.3,3.9-1,5.7l17.2,24.5
		C229.1,108.1,213.3,102.9,203.7,96.1z"/>
	<g id="XMLID_104_">
		<g>
			<path id="XMLID_873_" class="st1" d="M338,40.8c0,3-1.1,5.6-3.2,7.7c-2.1,2.1-4.7,3.2-7.8,3.2c-3,0-5.6-1.1-7.8-3.2
				c-2.1-2.1-3.2-4.7-3.2-7.8V27.3c0-0.6,0.2-1.1,0.6-1.5c0.4-0.4,0.9-0.6,1.5-0.6c0.6,0,1.1,0.2,1.5,0.6c0.4,0.4,0.6,0.9,0.6,1.5
				v13.5c0,1.8,0.7,3.4,2,4.8c1.3,1.3,2.9,2,4.8,2c1.9,0,3.5-0.7,4.8-2c1.3-1.3,2-2.9,2-4.8V27.3c0-0.6,0.2-1.1,0.6-1.5
				c0.4-0.4,0.9-0.6,1.5-0.6c0.6,0,1.1,0.2,1.5,0.6c0.4,0.4,0.6,0.9,0.6,1.5V40.8z"/>
			<path id="XMLID_871_" class="st1" d="M350.5,49.8c0,0.6-0.2,1-0.6,1.4c-0.4,0.4-0.9,0.6-1.4,0.6c-0.6,0-1-0.2-1.4-0.6
				c-0.4-0.4-0.6-0.9-0.6-1.4V34.8c0-0.6,0.2-1,0.6-1.4c0.4-0.4,0.9-0.6,1.4-0.6c0.9,0,1.5,0.4,1.9,1.2c1.2-0.8,2.6-1.2,4-1.2
				c2.2,0,4.1,0.8,5.6,2.3c1.5,1.6,2.3,3.4,2.3,5.6v9.1c0,0.6-0.2,1-0.6,1.4c-0.4,0.4-0.8,0.6-1.4,0.6c-0.5,0-1-0.2-1.4-0.6
				c-0.4-0.4-0.6-0.9-0.6-1.4v-9.1c0-1.1-0.4-2-1.2-2.7c-0.8-0.7-1.7-1.1-2.8-1.1c-1.1,0-2,0.4-2.7,1.1c-0.7,0.7-1.1,1.6-1.1,2.7
				V49.8z"/>
			<path id="XMLID_868_" class="st1" d="M373.9,27.3v0.8c0,0.6-0.2,1.1-0.6,1.5c-0.4,0.4-0.9,0.6-1.4,0.6c-0.6,0-1.1-0.2-1.5-0.6
				c-0.4-0.4-0.6-0.9-0.6-1.5v-0.8c0-0.6,0.2-1,0.6-1.4c0.4-0.4,0.9-0.6,1.5-0.6c0.6,0,1,0.2,1.4,0.6
				C373.7,26.2,373.9,26.7,373.9,27.3z M370.3,33.5c0.4-0.4,0.9-0.6,1.4-0.6c0.6,0,1.1,0.2,1.5,0.6c0.4,0.4,0.6,0.9,0.6,1.5v14.8
				c0,0.6-0.2,1.1-0.6,1.5c-0.4,0.4-0.9,0.6-1.4,0.6c-0.6,0-1.1-0.2-1.5-0.6c-0.4-0.4-0.6-0.9-0.6-1.4V35
				C369.8,34.4,370,33.9,370.3,33.5z"/>
			<path id="XMLID_866_" class="st1" d="M386.5,51.7c-0.4-0.2-0.7-0.4-0.7-0.5c-0.1-0.2-0.1-0.2-0.1-0.3c-0.1,0-0.1-0.1-0.2-0.3
				l-6.2-14.7c-0.2-0.5-0.2-1,0-1.5c0.2-0.5,0.6-0.8,1.1-1.1c0.5-0.2,0.9-0.2,1.4,0c0.5,0.2,0.9,0.6,1.1,1.1l4.4,10.3l4.4-10.3
				c0.2-0.5,0.5-0.9,1-1.1c0.5-0.2,1-0.2,1.5,0c0.5,0.2,0.9,0.6,1.1,1.1c0.2,0.5,0.2,1,0,1.5l-6.2,14.7c0,0.1-0.1,0.2-0.2,0.3
				c0,0-0.1,0.1-0.1,0.2c-0.1,0.1-0.1,0.1-0.3,0.2c-0.1,0.1-0.2,0.2-0.2,0.2c-0.1,0.1-0.1,0.1-0.2,0.1h-0.1v0c-0.1,0-0.2,0-0.3,0.1
				h-0.1c-0.1,0-0.2,0-0.4,0c-0.1,0-0.3,0-0.4,0h-0.1C386.7,51.7,386.7,51.7,386.5,51.7L386.5,51.7L386.5,51.7z"/>
			<path id="XMLID_863_" class="st1" d="M419.5,41.8c0,0.6-0.2,1-0.6,1.4c-0.4,0.3-0.8,0.5-1.5,0.5h-12.1c0.2,1.1,0.6,1.9,1.3,2.5
				c0.8,0.9,2,1.5,3.6,1.7c1.6,0.2,2.9-0.1,4-0.9c0.4-0.4,0.9-0.6,1.5-0.6c0.6,0,1.1,0.2,1.3,0.5c0.7,0.8,0.7,1.6,0,2.5
				c-1.8,1.7-4,2.5-6.7,2.5c-2.6,0-4.9-0.9-6.6-2.8c-1.8-1.8-2.7-4.1-2.7-6.7c0-2.6,0.9-4.8,2.7-6.7c1.8-1.9,3.9-2.8,6.5-2.8
				c2.5,0,4.7,0.8,6.4,2.5c1.7,1.7,2.7,3.8,2.8,6.3V41.8z M410.4,36.4c-1.5,0.1-2.6,0.5-3.5,1.4c-0.9,0.8-1.4,1.7-1.6,2.7H416
				c-0.2-0.9-0.9-1.7-1.8-2.6C413.2,37,411.9,36.6,410.4,36.4z"/>
			<path id="XMLID_861_" class="st1" d="M429.7,35.1c0.6-0.7,1.4-1.2,2.4-1.7c1-0.4,1.9-0.6,2.8-0.6c0.8,0,1.4,0.2,1.8,0.6
				c0.4,0.4,0.6,0.8,0.6,1.4c0,0.5-0.2,1-0.6,1.4c-0.4,0.4-0.9,0.6-1.4,0.6c-2.4,0-4.2,1.9-5.6,5.7v7.2c0,0.6-0.2,1-0.6,1.4
				c-0.4,0.4-0.9,0.6-1.5,0.6c-0.6,0-1-0.2-1.4-0.6c-0.4-0.4-0.6-0.9-0.6-1.4V34.8c0-0.6,0.2-1,0.6-1.4c0.4-0.4,0.9-0.6,1.4-0.6
				c0.6,0,1.1,0.2,1.5,0.6c0.4,0.4,0.6,0.8,0.6,1.4V35.1z"/>
			<path id="XMLID_859_" class="st1" d="M454,34.9c0.5,0.3,0.7,0.7,0.8,1.3c0.1,0.5,0,1.1-0.2,1.5c-0.3,0.5-0.7,0.7-1.3,0.9
				c-0.5,0.1-1.1,0-1.5-0.3c-1.4-0.9-2.6-1.4-3.5-1.4c-0.9,0-1.7,0.2-2.3,0.7c-0.4,0.3-0.6,0.5-0.6,0.7c0,0.2,0,0.4,0.1,0.5
				c0.1,0.1,0.2,0.2,0.4,0.3c0.6,0.4,1.5,0.7,2.8,0.9l0,0h0c1.3,0.3,2.6,0.6,3.7,1.1c1.1,0.5,1.9,1.2,2.5,2.1
				c0.5,0.9,0.8,1.8,0.8,2.6c0,1.8-0.8,3.2-2.4,4.4c-1.5,1-3.1,1.5-4.9,1.5c-2.4,0-4.6-0.9-6.8-2.6c-0.4-0.3-0.6-0.8-0.7-1.3
				c-0.1-0.6,0.1-1.1,0.4-1.5c0.3-0.5,0.8-0.7,1.4-0.8c0.6-0.1,1.1,0.1,1.5,0.4c1.4,1.1,2.8,1.7,4.2,1.7c1,0,1.8-0.2,2.6-0.7
				c0.5-0.4,0.7-0.7,0.7-1c0-0.3,0-0.4-0.1-0.5c0-0.1-0.2-0.3-0.5-0.5c-0.6-0.4-1.6-0.8-3-1.1h0c-1.3-0.2-2.5-0.6-3.5-1.1
				c-1-0.5-1.8-1.2-2.4-2.1c-0.4-0.7-0.7-1.5-0.7-2.4c0-1.6,0.8-3,2.2-4.2c1.4-0.9,2.9-1.4,4.7-1.4C450,32.8,451.9,33.5,454,34.9z"
				/>
			<path id="XMLID_856_" class="st1" d="M465,27.3v0.8c0,0.6-0.2,1.1-0.6,1.5c-0.4,0.4-0.9,0.6-1.5,0.6c-0.6,0-1.1-0.2-1.4-0.6
				c-0.4-0.4-0.6-0.9-0.6-1.5v-0.8c0-0.6,0.2-1,0.6-1.4c0.4-0.4,0.9-0.6,1.4-0.6c0.6,0,1.1,0.2,1.5,0.6
				C464.8,26.2,465,26.7,465,27.3z M461.5,33.5c0.4-0.4,0.9-0.6,1.5-0.6c0.6,0,1.1,0.2,1.5,0.6c0.4,0.4,0.6,0.9,0.6,1.5v14.8
				c0,0.6-0.2,1.1-0.6,1.5c-0.4,0.4-0.9,0.6-1.5,0.6c-0.6,0-1.1-0.2-1.4-0.6c-0.4-0.4-0.6-0.9-0.6-1.4V35
				C460.9,34.4,461.1,33.9,461.5,33.5z"/>
			<path id="XMLID_853_" class="st1" d="M488.8,49.8c0,0.6-0.2,1-0.6,1.4c-0.4,0.4-0.9,0.6-1.4,0.6c-0.5,0-1-0.2-1.4-0.5
				c-0.4-0.3-0.6-0.7-0.7-1.2c-1.6,1.1-3.3,1.6-5.1,1.6c-2.6,0-4.7-0.9-6.5-2.8c-1.8-1.9-2.7-4.1-2.7-6.7c0-2.6,0.9-4.8,2.7-6.7
				c1.8-1.9,4-2.8,6.5-2.8c1.9,0,3.6,0.5,5.1,1.6v-7.1c0-0.6,0.2-1,0.6-1.4c0.4-0.4,0.9-0.6,1.5-0.6c0.6,0,1.1,0.2,1.5,0.6
				c0.4,0.4,0.6,0.9,0.6,1.4V49.8z M479.5,47.7c1.4,0,2.6-0.5,3.6-1.6c1-1.1,1.5-2.3,1.5-3.8c0-1.4-0.5-2.7-1.5-3.8
				c-1-1.1-2.2-1.6-3.6-1.6c-1.4,0-2.6,0.5-3.6,1.6c-1,1-1.5,2.3-1.5,3.8c0,1.5,0.5,2.7,1.5,3.8C477,47.1,478.1,47.7,479.5,47.7z"/>
			<path id="XMLID_850_" class="st1" d="M497.2,49c-1.7-1.8-2.6-4.1-2.6-6.7c0-2.6,0.9-4.9,2.6-6.7c1.7-1.9,3.9-2.8,6.4-2.8
				c1.8,0,3.5,0.6,5.1,1.7c0.1-0.5,0.4-0.9,0.7-1.2c0.4-0.3,0.8-0.5,1.3-0.5c0.5,0,1,0.2,1.4,0.6c0.4,0.4,0.6,0.9,0.6,1.4v14.9
				c0,0.6-0.2,1-0.6,1.4c-0.4,0.4-0.9,0.6-1.4,0.6c-0.5,0-1-0.2-1.3-0.5c-0.4-0.3-0.6-0.7-0.7-1.2c-1.5,1.1-3.2,1.6-5.1,1.6
				C501.1,51.8,498.9,50.9,497.2,49z M498.7,42.3c0,1.5,0.5,2.8,1.4,3.9c0.9,1,2.1,1.6,3.6,1.6c1.4,0,2.6-0.5,3.6-1.6
				c1-1,1.4-2.3,1.4-3.8c0-1.5-0.5-2.8-1.4-3.9c-1-1.1-2.1-1.6-3.6-1.6c-1.4,0-2.6,0.5-3.6,1.6C499.1,39.5,498.7,40.8,498.7,42.3z"
				/>
			<path id="XMLID_847_" class="st1" d="M537.3,49.8c0,0.6-0.2,1-0.6,1.4c-0.4,0.4-0.9,0.6-1.4,0.6c-0.5,0-1-0.2-1.4-0.5
				c-0.4-0.3-0.6-0.7-0.7-1.2c-1.6,1.1-3.3,1.6-5.2,1.6c-2.6,0-4.7-0.9-6.5-2.8c-1.8-1.9-2.7-4.1-2.7-6.7c0-2.6,0.9-4.8,2.7-6.7
				c1.8-1.9,4-2.8,6.5-2.8c1.9,0,3.6,0.5,5.1,1.6v-7.1c0-0.6,0.2-1,0.6-1.4c0.4-0.4,0.9-0.6,1.5-0.6c0.6,0,1,0.2,1.5,0.6
				c0.4,0.4,0.6,0.9,0.6,1.4V49.8z M528.1,47.7c1.4,0,2.6-0.5,3.6-1.6c1-1.1,1.5-2.3,1.5-3.8c0-1.4-0.5-2.7-1.5-3.8
				c-1-1.1-2.2-1.6-3.6-1.6c-1.4,0-2.6,0.5-3.6,1.6c-1,1-1.5,2.3-1.5,3.8c0,1.5,0.5,2.7,1.5,3.8C525.5,47.1,526.7,47.7,528.1,47.7z"
				/>
			<path id="XMLID_844_" class="st1" d="M330.6,69.6c1.6,1.6,2.4,3.5,2.4,5.7c0,2.2-0.8,4.2-2.4,5.7c-1.6,1.6-3.5,2.4-5.8,2.4h-4.7
				v8.2c0,0.6-0.2,1.1-0.6,1.5c-0.4,0.4-0.9,0.6-1.5,0.6c-0.6,0-1.1-0.2-1.5-0.6c-0.4-0.4-0.6-0.9-0.6-1.5V69.3
				c0-0.6,0.2-1.1,0.6-1.5c0.4-0.4,0.9-0.6,1.5-0.6h6.8C327.1,67.2,329,68,330.6,69.6z M320.2,71.4v7.8h4.7c1.1,0,2-0.4,2.8-1.1
				c0.8-0.8,1.2-1.7,1.2-2.7c0-1.1-0.4-2-1.2-2.8c-0.8-0.8-1.7-1.1-2.8-1.1H320.2z"/>
			<path id="XMLID_841_" class="st1" d="M346,93.9c-2.6,0-4.7-0.9-6.5-2.8c-1.8-1.9-2.7-4.1-2.7-6.7c0-2.6,0.9-4.9,2.7-6.7
				c1.8-1.9,3.9-2.8,6.4-2.8c2.5,0,4.6,1,6.4,2.9c1.8,1.9,2.6,4.2,2.6,6.8c0,2.6-0.9,4.8-2.7,6.5C350.6,92.9,348.5,93.9,346,93.9z
				 M342.3,80.4c-0.9,1.1-1.4,2.4-1.4,3.9c0,1.6,0.5,2.9,1.4,4c1,0.9,2.2,1.4,3.6,1.4c1.4,0,2.6-0.5,3.6-1.4c1-1.1,1.5-2.5,1.5-4
				c0-1.6-0.5-2.9-1.5-3.9c-1.1-1-2.3-1.4-3.6-1.4C344.6,78.9,343.4,79.4,342.3,80.4z"/>
			<path id="XMLID_839_" class="st1" d="M361.7,69.3c0-0.6,0.2-1.1,0.6-1.5c0.4-0.4,0.9-0.6,1.5-0.6c0.6,0,1.1,0.2,1.5,0.6
				c0.4,0.4,0.6,0.9,0.6,1.5v22.4c0,0.6-0.2,1.1-0.6,1.5c-0.4,0.4-0.9,0.6-1.5,0.6c-0.6,0-1.1-0.2-1.5-0.6c-0.4-0.4-0.6-0.9-0.6-1.5
				V69.3z"/>
			<path id="XMLID_836_" class="st1" d="M375,69.3V70c0,0.6-0.2,1.1-0.6,1.5c-0.4,0.4-0.9,0.6-1.5,0.6c-0.6,0-1-0.2-1.4-0.6
				c-0.4-0.4-0.6-0.9-0.6-1.5v-0.8c0-0.6,0.2-1,0.6-1.4c0.4-0.4,0.9-0.6,1.4-0.6c0.6,0,1,0.2,1.5,0.6C374.8,68.2,375,68.7,375,69.3z
				 M371.5,75.4c0.4-0.4,0.9-0.6,1.5-0.6c0.6,0,1.1,0.2,1.5,0.6c0.4,0.4,0.6,0.9,0.6,1.5v14.8c0,0.6-0.2,1.1-0.6,1.5
				c-0.4,0.4-0.9,0.6-1.5,0.6c-0.6,0-1-0.2-1.4-0.6c-0.4-0.4-0.6-0.9-0.6-1.4V76.9C370.9,76.3,371.1,75.8,371.5,75.4z"/>
			<path id="XMLID_834_" class="st1" d="M387.9,74.8c0.6,0,1.1,0.2,1.5,0.6c0.4,0.4,0.6,0.9,0.6,1.5c0,0.6-0.2,1.1-0.6,1.5
				c-0.4,0.4-0.9,0.6-1.5,0.6h-1v10.6c0.6,0,1.1,0.2,1.5,0.6c0.4,0.4,0.6,0.9,0.6,1.5c0,0.6-0.2,1.1-0.6,1.5
				c-0.4,0.4-0.9,0.6-1.5,0.6c-1.2,0-2.2-0.4-3-1.2c-0.8-0.8-1.2-1.8-1.2-3V79h-1.1c-0.6,0-1.1-0.2-1.5-0.6
				c-0.4-0.4-0.6-0.9-0.6-1.5c0-0.6,0.2-1.1,0.6-1.5c0.4-0.4,0.9-0.6,1.5-0.6h1.1v-5.5c0-0.6,0.2-1.1,0.6-1.5
				c0.4-0.4,0.9-0.6,1.5-0.6c0.6,0,1.1,0.2,1.5,0.6c0.4,0.4,0.6,0.9,0.6,1.5v5.5H387.9z"/>
			<path id="XMLID_830_" class="st1" d="M413.8,83.8c0,0.6-0.2,1-0.6,1.4c-0.4,0.3-0.9,0.5-1.5,0.5h-12.1c0.2,1.1,0.7,1.9,1.3,2.5
				c0.8,0.9,2,1.5,3.5,1.7c1.6,0.2,2.9-0.1,4-0.9c0.4-0.4,0.9-0.6,1.5-0.6c0.6,0,1.1,0.2,1.3,0.5c0.7,0.8,0.7,1.6,0,2.5
				c-1.8,1.7-4,2.5-6.7,2.5c-2.6,0-4.9-0.9-6.6-2.8c-1.8-1.8-2.7-4.1-2.7-6.7c0-2.6,0.9-4.8,2.7-6.7c1.8-1.9,3.9-2.8,6.5-2.8
				c2.5,0,4.7,0.8,6.4,2.5c1.7,1.7,2.7,3.8,2.8,6.3V83.8z M404.6,78.4c-1.5,0.1-2.6,0.5-3.5,1.4c-0.9,0.8-1.4,1.7-1.6,2.7h10.7
				c-0.2-0.9-0.9-1.7-1.8-2.6C407.4,79,406.1,78.5,404.6,78.4z M409.3,71.1c-0.7,0.7-1.5,1-2.5,1c-0.9,0-1.4-0.3-1.4-0.8
				c0-0.3,0.1-0.5,0.3-0.8l2.2-3.3c0.4-0.7,1-1.1,1.7-1.1c0.7,0,1.3,0.2,1.9,0.5c0.6,0.3,0.9,0.7,0.9,1c0,0.4-0.2,0.7-0.7,1.1
				L409.3,71.1z"/>
			<path id="XMLID_828_" class="st1" d="M421.3,91c-1.9-1.9-2.8-4.1-2.8-6.7c0-2.6,1-4.8,2.8-6.7c1.9-1.8,4.2-2.8,6.8-2.8
				c2.2,0,4.2,0.7,6,2.1c0.4,0.3,0.7,0.8,0.8,1.3c0.1,0.6-0.1,1.1-0.4,1.5c-0.4,0.4-0.8,0.7-1.3,0.8c-0.5,0.1-1-0.1-1.5-0.4
				c-1.1-0.8-2.4-1.2-3.8-1.2c-1.4,0-2.7,0.5-3.8,1.6c-1.1,1.1-1.7,2.4-1.7,3.8c0,1.5,0.5,2.7,1.6,3.8c1.1,1.1,2.4,1.6,3.8,1.6
				c1.4,0,2.7-0.4,3.8-1.2c0.4-0.3,0.9-0.5,1.4-0.4c0.5,0.1,1,0.3,1.3,0.8c0.3,0.4,0.5,0.9,0.4,1.5c-0.1,0.5-0.3,1-0.8,1.4
				c-1.9,1.3-3.9,2-6,2C425.5,93.8,423.2,92.8,421.3,91z"/>
			<path id="XMLID_826_" class="st1" d="M445.6,91.8c0,0.6-0.2,1-0.7,1.4c-0.4,0.4-0.9,0.6-1.5,0.6c-0.6,0-1-0.2-1.4-0.6
				c-0.4-0.4-0.6-0.9-0.6-1.4V76.8c0-0.6,0.2-1,0.6-1.4c0.4-0.4,0.9-0.6,1.4-0.6c0.9,0,1.5,0.4,1.9,1.2c1.2-0.8,2.6-1.2,4-1.2
				c2.2,0,4.1,0.8,5.6,2.3c1.5,1.5,2.3,3.4,2.3,5.6v9.1c0,0.6-0.2,1-0.6,1.4c-0.4,0.4-0.8,0.6-1.4,0.6c-0.5,0-1-0.2-1.4-0.6
				c-0.4-0.4-0.6-0.9-0.6-1.4v-9.1c0-1.1-0.4-2-1.2-2.7c-0.8-0.7-1.7-1.1-2.8-1.1c-1.1,0-2,0.4-2.7,1.1c-0.7,0.7-1.1,1.7-1.1,2.7
				V91.8z"/>
			<path id="XMLID_823_" class="st1" d="M468.9,69.3V70c0,0.6-0.2,1.1-0.6,1.5c-0.4,0.4-0.9,0.6-1.4,0.6c-0.6,0-1.1-0.2-1.5-0.6
				c-0.4-0.4-0.6-0.9-0.6-1.5v-0.8c0-0.6,0.2-1,0.6-1.4c0.4-0.4,0.9-0.6,1.5-0.6c0.6,0,1,0.2,1.4,0.6
				C468.7,68.2,468.9,68.7,468.9,69.3z M465.4,75.4c0.4-0.4,0.9-0.6,1.5-0.6c0.6,0,1.1,0.2,1.5,0.6c0.4,0.4,0.6,0.9,0.6,1.5v14.8
				c0,0.6-0.2,1.1-0.6,1.5c-0.4,0.4-0.9,0.6-1.4,0.6c-0.6,0-1.1-0.2-1.5-0.6c-0.4-0.4-0.6-0.9-0.6-1.4V76.9
				C464.8,76.3,465,75.8,465.4,75.4z"/>
			<path id="XMLID_821_" class="st1" d="M476.9,91c-1.9-1.9-2.8-4.1-2.8-6.7c0-2.6,1-4.8,2.8-6.7c1.9-1.8,4.2-2.8,6.8-2.8
				c2.2,0,4.2,0.7,6,2.1c0.4,0.3,0.7,0.8,0.8,1.3c0.1,0.6-0.1,1.1-0.4,1.5c-0.3,0.4-0.8,0.7-1.3,0.8c-0.5,0.1-1-0.1-1.5-0.4
				c-1.1-0.8-2.4-1.2-3.8-1.2c-1.4,0-2.7,0.5-3.8,1.6c-1.1,1.1-1.7,2.4-1.7,3.8c0,1.5,0.6,2.7,1.6,3.8c1.1,1.1,2.4,1.6,3.8,1.6
				c1.4,0,2.7-0.4,3.8-1.2c0.4-0.3,0.9-0.5,1.4-0.4c0.6,0.1,1,0.3,1.4,0.8c0.3,0.4,0.5,0.9,0.4,1.5c-0.1,0.5-0.3,1-0.8,1.4
				c-1.9,1.3-3.9,2-6,2C481.1,93.8,478.8,92.8,476.9,91z"/>
			<path id="XMLID_818_" class="st1" d="M497.7,91c-1.7-1.8-2.6-4.1-2.6-6.7c0-2.6,0.9-4.9,2.6-6.7c1.7-1.9,3.9-2.8,6.4-2.8
				c1.8,0,3.5,0.6,5,1.7c0.1-0.5,0.4-0.9,0.7-1.2c0.3-0.3,0.8-0.5,1.3-0.5c0.5,0,1,0.2,1.4,0.6c0.4,0.4,0.6,0.9,0.6,1.4v14.9
				c0,0.6-0.2,1-0.6,1.4c-0.4,0.4-0.9,0.6-1.4,0.6c-0.5,0-1-0.1-1.3-0.5c-0.4-0.3-0.6-0.7-0.7-1.2c-1.5,1.1-3.2,1.6-5,1.6
				C501.5,93.8,499.4,92.8,497.7,91z M499.1,84.3c0,1.5,0.5,2.8,1.4,3.9c0.9,1,2.1,1.6,3.6,1.6c1.4,0,2.6-0.5,3.6-1.6
				c0.9-1,1.4-2.3,1.4-3.8c0-1.5-0.5-2.8-1.4-3.9c-1-1.1-2.2-1.6-3.6-1.6c-1.4,0-2.6,0.5-3.6,1.6C499.6,81.5,499.1,82.8,499.1,84.3z
				"/>
			<path id="XMLID_816_" class="st1" d="M316.2,111.2c0-0.6,0.2-1.1,0.6-1.5c0.4-0.4,0.9-0.6,1.5-0.6c0.6,0,1.1,0.2,1.5,0.6
				c0.4,0.4,0.6,0.9,0.6,1.5v22.4c0,0.6-0.2,1.1-0.6,1.5c-0.4,0.4-0.9,0.6-1.5,0.6c-0.6,0-1.1-0.2-1.5-0.6c-0.4-0.4-0.6-0.9-0.6-1.5
				V111.2z"/>
			<path id="XMLID_814_" class="st1" d="M331.2,133.7c0,0.6-0.2,1-0.7,1.4c-0.4,0.4-0.9,0.6-1.5,0.6c-0.5,0-1-0.2-1.4-0.6
				c-0.4-0.4-0.6-0.9-0.6-1.4v-15c0-0.5,0.2-1,0.6-1.4c0.4-0.4,0.9-0.6,1.4-0.6c0.9,0,1.5,0.4,1.9,1.2c1.2-0.8,2.6-1.2,4-1.2
				c2.2,0,4.1,0.8,5.6,2.3c1.5,1.6,2.3,3.4,2.3,5.6v9.1c0,0.6-0.2,1-0.6,1.4c-0.4,0.4-0.8,0.6-1.4,0.6c-0.5,0-1-0.2-1.4-0.6
				c-0.4-0.4-0.6-0.9-0.6-1.4v-9.1c0-1.1-0.4-2-1.2-2.7c-0.8-0.7-1.7-1.1-2.8-1.1c-1.1,0-2,0.4-2.7,1.1c-0.7,0.8-1.1,1.7-1.1,2.7
				V133.7z"/>
			<path id="XMLID_812_" class="st1" d="M356.8,116.7c0.6,0,1.1,0.2,1.5,0.6c0.4,0.4,0.6,0.9,0.6,1.5c0,0.6-0.2,1.1-0.6,1.5
				c-0.4,0.4-0.9,0.6-1.5,0.6h-1v10.6c0.6,0,1.1,0.2,1.5,0.6c0.4,0.4,0.6,0.9,0.6,1.5c0,0.6-0.2,1.1-0.6,1.5
				c-0.4,0.4-0.9,0.6-1.5,0.6c-1.2,0-2.1-0.4-3-1.2c-0.8-0.8-1.2-1.8-1.2-3v-10.6h-1.1c-0.6,0-1.1-0.2-1.5-0.6
				c-0.4-0.4-0.6-0.9-0.6-1.5c0-0.6,0.2-1.1,0.6-1.5c0.4-0.4,0.9-0.6,1.5-0.6h1.1v-5.5c0-0.6,0.2-1.1,0.6-1.5
				c0.4-0.4,0.9-0.6,1.5-0.6c0.6,0,1.1,0.2,1.5,0.6c0.4,0.4,0.6,0.9,0.6,1.5v5.5H356.8z"/>
			<path id="XMLID_809_" class="st1" d="M382.7,125.8c0,0.5-0.2,1-0.6,1.3c-0.4,0.3-0.9,0.5-1.5,0.5h-12.1c0.2,1.1,0.7,1.9,1.3,2.5
				c0.8,0.9,2,1.5,3.6,1.7c1.6,0.2,2.9-0.1,4-0.9c0.4-0.4,0.9-0.6,1.5-0.6c0.6,0,1.1,0.2,1.3,0.5c0.7,0.8,0.7,1.6,0,2.5
				c-1.8,1.7-4.1,2.5-6.7,2.5c-2.6,0-4.9-0.9-6.6-2.8c-1.8-1.8-2.7-4.1-2.7-6.7c0-2.6,0.9-4.8,2.7-6.7c1.8-1.9,3.9-2.8,6.5-2.8
				c2.5,0,4.7,0.8,6.4,2.5c1.7,1.7,2.7,3.8,2.8,6.3V125.8z M373.5,120.4c-1.5,0.1-2.7,0.5-3.5,1.4c-0.9,0.8-1.4,1.7-1.6,2.7h10.7
				c-0.2-0.9-0.8-1.8-1.8-2.6C376.3,121,375,120.5,373.5,120.4z"/>
			<path id="XMLID_807_" class="st1" d="M392.8,119c0.6-0.7,1.4-1.2,2.4-1.6c1-0.4,1.9-0.6,2.8-0.6c0.8,0,1.4,0.2,1.8,0.6
				c0.4,0.4,0.6,0.9,0.6,1.4c0,0.5-0.2,1-0.6,1.4c-0.4,0.4-0.9,0.6-1.4,0.6c-2.4,0-4.2,1.9-5.6,5.7v7.2c0,0.6-0.2,1-0.6,1.4
				c-0.4,0.4-0.9,0.6-1.5,0.6c-0.6,0-1-0.2-1.4-0.6c-0.4-0.4-0.6-0.9-0.6-1.4v-15c0-0.5,0.2-1,0.6-1.4c0.4-0.4,0.9-0.6,1.4-0.6
				c0.6,0,1.1,0.2,1.5,0.6c0.4,0.4,0.6,0.9,0.6,1.4V119z"/>
			<path id="XMLID_805_" class="st1" d="M409.4,133.7c0,0.6-0.2,1-0.6,1.4c-0.4,0.4-0.9,0.6-1.5,0.6c-0.5,0-1-0.2-1.4-0.6
				c-0.4-0.4-0.6-0.9-0.6-1.4v-15c0-0.5,0.2-1,0.6-1.4c0.4-0.4,0.9-0.6,1.4-0.6c0.9,0,1.5,0.4,1.9,1.2c1.2-0.8,2.6-1.2,4-1.2
				c2.2,0,4.1,0.8,5.6,2.3c1.5,1.6,2.3,3.4,2.3,5.6v9.1c0,0.6-0.2,1-0.6,1.4c-0.4,0.4-0.8,0.6-1.4,0.6c-0.6,0-1-0.2-1.4-0.6
				c-0.4-0.4-0.6-0.9-0.6-1.4v-9.1c0-1.1-0.4-2-1.2-2.7c-0.8-0.7-1.7-1.1-2.8-1.1c-1.1,0-2,0.4-2.7,1.1c-0.7,0.8-1.1,1.7-1.1,2.7
				V133.7z"/>
			<path id="XMLID_802_" class="st1" d="M429.2,133c-1.7-1.8-2.6-4.1-2.6-6.7c0-2.6,0.9-4.9,2.6-6.7c1.7-1.9,3.9-2.8,6.4-2.8
				c1.8,0,3.5,0.6,5,1.7c0.1-0.5,0.4-0.9,0.7-1.2c0.4-0.3,0.8-0.5,1.3-0.5c0.5,0,1,0.2,1.4,0.6c0.4,0.4,0.6,0.9,0.6,1.4v14.9
				c0,0.6-0.2,1-0.6,1.4c-0.4,0.4-0.8,0.6-1.4,0.6c-0.5,0-1-0.1-1.3-0.5c-0.3-0.3-0.6-0.7-0.7-1.2c-1.5,1.1-3.2,1.6-5,1.6
				C433.1,135.7,430.9,134.8,429.2,133z M430.7,126.3c0,1.5,0.5,2.8,1.4,3.9c0.9,1,2.1,1.6,3.6,1.6c1.5,0,2.7-0.5,3.6-1.6
				c1-1,1.4-2.3,1.4-3.8c0-1.5-0.5-2.8-1.4-3.9c-1-1.1-2.2-1.6-3.6-1.6c-1.4,0-2.6,0.5-3.6,1.6C431.1,123.4,430.7,124.7,430.7,126.3
				z"/>
			<path id="XMLID_800_" class="st1" d="M453.6,132.9c-1.9-1.9-2.9-4.1-2.9-6.7c0-2.6,1-4.8,2.9-6.7c1.9-1.8,4.2-2.8,6.8-2.8
				c2.2,0,4.2,0.7,6,2.1c0.4,0.3,0.7,0.8,0.8,1.3c0.1,0.6-0.1,1.1-0.4,1.5c-0.3,0.4-0.8,0.7-1.3,0.8c-0.5,0.1-1-0.1-1.4-0.4
				c-1.1-0.8-2.4-1.2-3.8-1.2c-1.4,0-2.7,0.5-3.8,1.6c-1.1,1.1-1.7,2.4-1.7,3.8c0,1.5,0.5,2.7,1.6,3.8c1.1,1.1,2.4,1.6,3.8,1.6
				c1.4,0,2.7-0.4,3.8-1.2c0.4-0.3,0.9-0.5,1.4-0.4c0.6,0.1,1,0.3,1.3,0.8c0.3,0.4,0.5,0.9,0.4,1.5c-0.1,0.5-0.3,1-0.8,1.4
				c-1.9,1.3-3.9,2-6,2C457.8,135.7,455.5,134.8,453.6,132.9z"/>
			<path id="XMLID_797_" class="st1" d="M477.9,111.2v0.8c0,0.6-0.2,1.1-0.6,1.5c-0.4,0.4-0.9,0.6-1.4,0.6c-0.6,0-1.1-0.2-1.4-0.6
				c-0.4-0.4-0.6-0.9-0.6-1.5v-0.8c0-0.6,0.2-1,0.6-1.4c0.4-0.4,0.9-0.6,1.4-0.6c0.6,0,1.1,0.2,1.4,0.6
				C477.7,110.1,477.9,110.6,477.9,111.2z M474.4,117.4c0.4-0.4,0.9-0.6,1.5-0.6c0.6,0,1.1,0.2,1.5,0.6c0.4,0.4,0.6,0.9,0.6,1.5
				v14.8c0,0.6-0.2,1.1-0.6,1.5c-0.4,0.4-0.9,0.6-1.4,0.6c-0.6,0-1.1-0.2-1.4-0.6c-0.4-0.4-0.6-0.9-0.6-1.4v-14.8
				C473.8,118.3,474,117.8,474.4,117.4z"/>
			<path id="XMLID_794_" class="st1" d="M492.7,135.8c-2.6,0-4.7-0.9-6.5-2.8c-1.8-1.9-2.7-4.1-2.7-6.7c0-2.6,0.9-4.9,2.7-6.7
				c1.8-1.9,3.9-2.8,6.4-2.8c2.5,0,4.6,1,6.4,2.9c1.8,1.9,2.7,4.2,2.7,6.8c0,2.6-0.9,4.8-2.7,6.5
				C497.4,134.9,495.3,135.8,492.7,135.8z M489.1,122.3c-0.9,1.1-1.4,2.4-1.4,3.9c0,1.6,0.5,2.9,1.4,4c1,0.9,2.2,1.4,3.6,1.4
				c1.4,0,2.6-0.5,3.6-1.4c1-1.1,1.5-2.5,1.5-4c0-1.6-0.5-2.9-1.5-3.9c-1.1-1-2.3-1.4-3.6-1.4C491.4,120.9,490.2,121.4,489.1,122.3z
				"/>
			<path id="XMLID_792_" class="st1" d="M512.3,133.7c0,0.6-0.2,1-0.7,1.4c-0.4,0.4-0.9,0.6-1.4,0.6c-0.5,0-1-0.2-1.4-0.6
				c-0.4-0.4-0.6-0.9-0.6-1.4v-15c0-0.5,0.2-1,0.6-1.4c0.4-0.4,0.9-0.6,1.4-0.6c0.9,0,1.5,0.4,1.9,1.2c1.2-0.8,2.6-1.2,4-1.2
				c2.2,0,4.1,0.8,5.6,2.3c1.5,1.6,2.3,3.4,2.3,5.6v9.1c0,0.6-0.2,1-0.6,1.4c-0.4,0.4-0.8,0.6-1.4,0.6c-0.5,0-1-0.2-1.4-0.6
				c-0.4-0.4-0.6-0.9-0.6-1.4v-9.1c0-1.1-0.4-2-1.2-2.7c-0.8-0.7-1.7-1.1-2.8-1.1c-1.1,0-2,0.4-2.7,1.1c-0.7,0.8-1.1,1.7-1.1,2.7
				V133.7z"/>
			<path id="XMLID_789_" class="st1" d="M532,133c-1.7-1.8-2.6-4.1-2.6-6.7c0-2.6,0.9-4.9,2.6-6.7c1.7-1.9,3.9-2.8,6.4-2.8
				c1.8,0,3.5,0.6,5.1,1.7c0.1-0.5,0.3-0.9,0.7-1.2c0.4-0.3,0.8-0.5,1.3-0.5c0.5,0,1,0.2,1.4,0.6c0.4,0.4,0.6,0.9,0.6,1.4v14.9
				c0,0.6-0.2,1-0.6,1.4c-0.4,0.4-0.8,0.6-1.4,0.6c-0.5,0-1-0.1-1.3-0.5c-0.4-0.3-0.6-0.7-0.7-1.2c-1.5,1.1-3.2,1.6-5.1,1.6
				C535.9,135.7,533.7,134.8,532,133z M533.5,126.3c0,1.5,0.5,2.8,1.4,3.9c0.9,1,2.1,1.6,3.6,1.6c1.5,0,2.7-0.5,3.6-1.6
				c1-1,1.4-2.3,1.4-3.8c0-1.5-0.5-2.8-1.4-3.9c-1-1.1-2.2-1.6-3.6-1.6c-1.4,0-2.6,0.5-3.5,1.6C533.9,123.4,533.5,124.7,533.5,126.3
				z"/>
			<path id="XMLID_787_" class="st1" d="M555.2,111.2c0-0.6,0.2-1.1,0.6-1.5c0.4-0.4,0.9-0.6,1.5-0.6c0.6,0,1.1,0.2,1.5,0.6
				c0.4,0.4,0.6,0.9,0.6,1.5v22.4c0,0.6-0.2,1.1-0.6,1.5c-0.4,0.4-0.9,0.6-1.5,0.6c-0.6,0-1.1-0.2-1.5-0.6c-0.4-0.4-0.6-0.9-0.6-1.5
				V111.2z"/>
		</g>
	</g>
	<path class="st1" d="M153.2,57c-13.5,0-24.4,11-24.4,24.4c0,13.5,11,24.4,24.4,24.4c13.5,0,24.4-11,24.4-24.4
		C177.7,68,166.7,57,153.2,57z M153.2,97.7c-9,0-16.2-7.3-16.2-16.2c0-9,7.3-16.2,16.2-16.2c9,0,16.2,7.3,16.2,16.2
		C169.5,90.4,162.2,97.7,153.2,97.7z"/>
	<path class="st1" d="M214.3,78.1c-0.7-0.9-9.7-13.3-22.5-24.6c-2.5-2.2-5.1-4.3-7.8-6.3c-9.3-6.9-19.9-12.2-30.5-12.4
		c-12.6,0-25.4,7.7-36.1,16.7c-2.2,1.8-4.3,3.7-6.3,5.6c-10.8,10.2-18.2,20.2-18.8,21c-1,1.4-1.1,3.3-0.1,4.7
		c0.4,0.6,3.8,5.4,9.1,11.7c2.1,2.5,4.5,5.2,7.1,7.9c11.6,12.1,28,25.4,44.2,25.6l0.4,0c16.3,0,33.2-13.6,45.1-25.9
		c2-2.1,3.9-4.1,5.6-6c6.2-7,10.2-12.6,10.6-13.3C215.3,81.4,215.3,79.5,214.3,78.1z M197.7,90.5c-1.7,1.9-3.6,4-5.6,6.1
		c-10.8,11.2-25.5,23.3-39,23.3h-0.3c-11.1-0.1-23-8.4-32.7-17.4c-2.9-2.7-5.6-5.5-8.1-8.2c-5.2-5.7-9.2-10.8-11.3-13.7
		c2.5-3.1,7.3-9,13.6-15.2c2.1-2.1,4.3-4.2,6.7-6.2c9.9-8.6,21.7-16.2,32.8-16.2c10,0.1,20.6,6.5,29.7,14.1c2.9,2.4,5.7,5,8.2,7.5
		c6.5,6.5,11.6,12.7,14.1,16C204.1,82.8,201.3,86.4,197.7,90.5z"/>
	<g>
		<path class="st2" d="M32.3,32.3c1.6-1.6,1.6-4.2,0-5.8L22.2,16.4c-0.8-0.8-1.8-1.2-2.9-1.2c-1.1,0-2.1,0.4-2.9,1.2
			c-1.6,1.6-1.6,4.2,0,5.8l10.1,10.1c0.8,0.8,1.8,1.2,2.9,1.2C30.4,33.5,31.5,33.1,32.3,32.3z"/>
		<path class="st2" d="M19.4,40.9l-14.2-4c-0.4-0.1-0.8-0.2-1.1-0.2c-1.8,0-3.4,1.2-3.9,3c-0.6,2.2,0.7,4.4,2.8,5.1l14.2,4l1.1,0.1
			c1.8,0,3.4-1.2,3.9-3C22.8,43.8,21.6,41.5,19.4,40.9z"/>
		<path class="st2" d="M40.9,19.4c0.5,1.8,2.2,3,3.9,3l1.1-0.1c2.2-0.6,3.5-2.9,2.8-5.1L44.8,3c-0.5-1.8-2.1-3-3.9-3
			c-0.4,0-0.7,0.1-1.1,0.2c-2.2,0.6-3.4,2.9-2.8,5L40.9,19.4z"/>
		<path class="st2" d="M123.8,80.3c-0.1-2.2-0.2-4-0.2-5c0-5.7-1-11.1-2.8-16.2c-1-2.7-2.2-5.3-3.6-7.8
			C109,36.8,93.2,26.9,75.2,26.9c-26.7,0-48.5,21.8-48.5,48.5c0,8,0.1,11.7,0.3,15.7c0.2,5,0.4,10.7,0.4,26.1c0,2.3,1.8,4.1,4.1,4.1
			c2.3,0,4.1-1.8,4.1-4.1c0-15.6-0.2-21.3-0.4-26.4c-0.1-4-0.2-7.6-0.2-15.5C34.9,53.1,52.9,35,75.2,35c15.6,0,29.2,8.9,35.9,22
			c1.4,2.6,2.4,5.4,3.2,8.4c0.8,3.2,1.3,6.5,1.3,10c0,1.1,0.1,3,0.1,5.3c0.1,3.2,0.4,9.7,0.2,13.6H112h-9.2c-0.5,0-1,0.1-1.5,0.3
			c-1.5,0.6-2.6,2.1-2.6,3.8v18.8c0,3.2-1.9,6.3-4.9,8.1c-1.7,1.1-3.6,1.6-5.5,1.6c-1.6,0-3.3-0.4-4.8-1.2c-0.6-0.3-1.3-0.5-1.9-0.5
			c-1.5,0-2.9,0.8-3.6,2.2c-1,2-0.3,4.5,1.7,5.5c2.7,1.4,5.7,2.1,8.6,2.1c3.4,0,6.8-0.9,9.8-2.8c5.5-3.3,8.9-9.1,8.9-15.1v-14.7h1.6
			h11.2c0.2,0,0.3,0,0.5,0c1.6-0.2,3.1-1.4,3.5-3C124.3,96.4,124.1,89.3,123.8,80.3z"/>
	</g>
</g>
</svg>
